<svg xmlns="http://www.w3.org/2000/svg" viewBox="0 0 1280 720"><rect width="1280" height="720" fill="#FDFBF7"/><image href="../images/hzau-logo.png" x="1110" y="14" width="140" height="40" preserveAspectRatio="xMaxYMid meet" opacity="0.85"/><rect x="0" y="0" width="1280" height="4" fill="#1B4332"/><text x="80" y="60" font-family="Noto Sans SC,sans-serif" font-size="34" font-weight="700" fill="#1F2937">全栈开发 / 项目管理 / 测试</text>
<rect x="80" y="75" width="160" height="30" rx="6" fill="#1B4332"/><text x="160" y="96" text-anchor="middle" font-size="14" font-weight="600" fill="white">张可凡（队长）</text>

<rect x="60" y="125" width="560" height="270" rx="10" fill="white" stroke="#1B4332" stroke-width="2"/><rect x="60" y="125" width="560" height="44" rx="10" fill="#1B4332"/><rect x="60" y="149" width="560" height="20" fill="#1B4332"/><text x="340" y="153" text-anchor="middle" font-size="17" font-weight="700" fill="white">Docker 容器化部署</text>
<text x="90" y="210" font-size="16" fill="#1F2937"><tspan font-weight="700">编排</tspan> MySQL + Redis + SpringBoot + Nginx + phpMyAdmin 五容器</text>
<text x="90" y="242" font-size="16" fill="#1F2937"><tspan font-weight="700">代理</tspan> Nginx 反向代理 /api/* → backend + Gzip + 限流 30r/s</text>
<text x="90" y="274" font-size="16" fill="#1F2937"><tspan font-weight="700">健康检查</tspan> MySQL/Redis healthy 后才启动后端，保障启动顺序</text>
<text x="90" y="306" font-size="16" fill="#1F2937"><tspan font-weight="700">持久化</tspan> mysql_data / redis_data / upload_data 三个 Volume</text>
<text x="90" y="338" font-size="16" fill="#1F2937"><tspan font-weight="700">时区修复</tspan> TZ=Asia/Shanghai 解决 UTC 偏移 8 小时</text>
<text x="90" y="370" font-size="16" fill="#1F2937"><tspan font-weight="700">多环境</tspan> dev/prod/test + .env 敏感信息不入库</text>

<rect x="660" y="125" width="560" height="270" rx="10" fill="white" stroke="#1B4332" stroke-width="2"/><rect x="660" y="125" width="560" height="44" rx="10" fill="#1B4332"/><rect x="660" y="149" width="560" height="20" fill="#1B4332"/><text x="940" y="153" text-anchor="middle" font-size="17" font-weight="700" fill="white">管理与测试</text>
<text x="690" y="210" font-size="16" fill="#1F2937"><tspan font-weight="700">项目计划</tspan> 7 天计划 · 80+ 任务分解 · 5 人角色分配</text>
<text x="690" y="242" font-size="16" fill="#1F2937"><tspan font-weight="700">管理后台</tspan> 5 页面：用户/商品审核/订单/统计/公告</text>
<text x="690" y="274" font-size="16" fill="#1F2937"><tspan font-weight="700">Postman</tspan> 30+ 接口测试 · 覆盖 7 大模块</text>
<text x="690" y="306" font-size="16" fill="#1F2937"><tspan font-weight="700">JUnit</tspan> 14 后端单元测试 · 全部通过</text>
<text x="690" y="338" font-size="16" fill="#1F2937"><tspan font-weight="700">文档</tspan> 7 份软件工程文档（需求·架构·数据库·接口·测试·手册·日报）</text>
<text x="690" y="370" font-size="16" fill="#1F2937"><tspan font-weight="700">版本控制</tspan> Git · 15+ commits · 合并冲突解决</text>

<rect x="60" y="420" width="1160" height="55" rx="8" fill="#E8F5E9"/><text x="640" y="455" text-anchor="middle" font-size="15" fill="#2D6A4F">贡献统计：Docker 五容器编排 · Nginx 配置 · 管理后台 5 页面 · 30+ Postman 测试 · 7 份文档 · 项目进度管理</text>
<rect x="0" y="717" width="1280" height="3" fill="#1B4332"/><text x="1230" y="705" text-anchor="end" font-size="11" fill="#9CA3AF">6 / 20</text></svg>