<svg xmlns="http://www.w3.org/2000/svg" viewBox="0 0 1280 720"><rect width="1280" height="720" fill="#FDFBF7"/><image href="../images/hzau-logo.png" x="1110" y="14" width="140" height="40" preserveAspectRatio="xMaxYMid meet" opacity="0.85"/><rect x="0" y="0" width="1280" height="4" fill="#52B788"/><text x="80" y="60" font-family="Noto Sans SC,sans-serif" font-size="34" font-weight="700" fill="#1F2937">前端开发</text><rect x="80" y="75" width="100" height="30" rx="6" fill="#52B788"/><text x="130" y="96" text-anchor="middle" font-size="14" font-weight="600" fill="white">阮崇轩</text>
<rect x="60" y="125" width="560" height="280" rx="10" fill="white" stroke="#52B788" stroke-width="2"/><rect x="60" y="125" width="560" height="44" rx="10" fill="#52B788"/><rect x="60" y="149" width="560" height="20" fill="#52B788"/><text x="340" y="153" text-anchor="middle" font-size="17" font-weight="700" fill="white">认证与消息系统</text>
<text x="90" y="210" font-size="16" fill="#1F2937"><tspan font-weight="700">工程搭建</tspan> Vue3+TS+Vite · CSS 令牌 15 变量 · Element Plus 全局覆盖</text>
<text x="90" y="242" font-size="16" fill="#1F2937"><tspan font-weight="700">认证模块</tspan> 登录·注册·找回密码 · Token 队列自动刷新</text>
<text x="90" y="274" font-size="16" fill="#1F2937"><tspan font-weight="700">消息系统</tspan> 双栏聊天·5s轮询·?to=userId 自动开聊</text>
<text x="90" y="306" font-size="16" fill="#1F2937"><tspan font-weight="700">通知系统</tspan> 铃铛+Popover+可点击跳转+30s轮询</text>
<text x="90" y="338" font-size="16" fill="#1F2937"><tspan font-weight="700">订单详情</tspan> 买家卖家双视角 · 发货·收货·评价全流程</text>
<text x="90" y="370" font-size="16" fill="#1F2937"><tspan font-weight="700">后端修复</tspan> 验证码隔离·防暴力破解·防消费·浏览量修正</text>
<rect x="660" y="125" width="560" height="280" rx="10" fill="white" stroke="#52B788" stroke-width="2"/><rect x="660" y="125" width="560" height="44" rx="10" fill="#52B788"/><rect x="660" y="149" width="560" height="20" fill="#52B788"/><text x="940" y="153" text-anchor="middle" font-size="17" font-weight="700" fill="white">UI 动效系统</text>
<text x="690" y="210" font-size="16" fill="#1F2937"><tspan font-weight="700">页面过渡</tspan> fade/slide 路由切换 · mode=out-in</text>
<text x="690" y="242" font-size="16" fill="#1F2937"><tspan font-weight="700">骨架屏</tspan> Shimmer 1.5s 循环·8 卡片占位</text>
<text x="690" y="274" font-size="16" fill="#1F2937"><tspan font-weight="700">回到顶部</tspan> 400px 弹性出现·绿色圆形悬浮</text>
<text x="690" y="306" font-size="16" fill="#1F2937"><tspan font-weight="700">导航栏</tspan> backdrop-filter blur(12px)+滚动阴影</text>
<text x="690" y="338" font-size="16" fill="#1F2937"><tspan font-weight="700">按钮交互</tspan> hover 上浮 1px+阴影·active 下压回弹</text>
<text x="690" y="370" font-size="16" fill="#1F2937"><tspan font-weight="700">动画库</tspan> shimmer·shake·pulse·fadeInUp·floatAuth</text>
<rect x="0" y="717" width="1280" height="3" fill="#52B788"/><text x="1230" y="705" text-anchor="end" font-size="11" fill="#9CA3AF">7 / 20</text></svg>