<svg xmlns="http://www.w3.org/2000/svg" viewBox="0 0 1280 720"><rect width="1280" height="720" fill="#FDFBF7"/><image href="../images/hzau-logo.png" x="1110" y="14" width="140" height="40" preserveAspectRatio="xMaxYMid meet" opacity="0.85"/><rect x="0" y="0" width="1280" height="4" fill="#2D6A4F"/><text x="80" y="56" font-family="Noto Sans SC,sans-serif" font-size="28" font-weight="700" fill="#1F2937">项目演示 — 浏览与搜索</text><rect x="60" y="78" width="1160" height="3" fill="#E5E7EB"/>
<rect x="60" y="105" width="560" height="270" rx="10" fill="white" stroke="#E5E7EB"/><rect x="60" y="105" width="560" height="45" rx="10" fill="#1B4332"/><rect x="60" y="130" width="560" height="20" fill="#1B4332"/><text x="340" y="133" text-anchor="middle" font-family="Noto Sans SC,sans-serif" font-size="15" fill="white" font-weight="700">🏠 首页展示</text><text x="90" y="175" font-family="Noto Sans SC,sans-serif" font-size="13" fill="#6B7280">• Hero 横幅 + 品牌标语 + 实时统计数据</text><text x="90" y="200" font-family="Noto Sans SC,sans-serif" font-size="13" fill="#6B7280">• 搜索框快速跳转商品列表页</text><text x="90" y="225" font-family="Noto Sans SC,sans-serif" font-size="13" fill="#6B7280">• 公告栏水平滚动轮播 (CSS Animation)</text><text x="90" y="250" font-family="Noto Sans SC,sans-serif" font-size="13" fill="#6B7280">• 8 个分类 Tab (Emoji 图标) 切换加载</text><text x="90" y="275" font-family="Noto Sans SC,sans-serif" font-size="13" fill="#6B7280">• 商品网格响应式布局 + 骨架屏加载</text><text x="90" y="300" font-family="Noto Sans SC,sans-serif" font-size="13" fill="#6B7280">• 卡片 hover 放大图片 + 阴影效果</text><text x="90" y="325" font-family="Noto Sans SC,sans-serif" font-size="13" fill="#6B7280">• 相对时间显示 (刚刚/X分钟前/X天前)</text><text x="90" y="355" font-family="Noto Sans SC,sans-serif" font-size="12" fill="#2D6A4F">📊 首页统计: 17 用户 · 217 商品 · 实时</text>
<rect x="660" y="105" width="560" height="270" rx="10" fill="white" stroke="#E5E7EB"/><rect x="660" y="105" width="560" height="45" rx="10" fill="#2D6A4F"/><rect x="660" y="130" width="560" height="20" fill="#2D6A4F"/><text x="940" y="133" text-anchor="middle" font-family="Noto Sans SC,sans-serif" font-size="15" fill="white" font-weight="700">🔍 搜索与筛选</text><text x="690" y="175" font-family="Noto Sans SC,sans-serif" font-size="13" fill="#6B7280">• 关键词搜索 + MySQL FULLTEXT 全文索引</text><text x="690" y="200" font-family="Noto Sans SC,sans-serif" font-size="13" fill="#6B7280">• 分类下拉筛选 (一级 + 二级分类)</text><text x="690" y="225" font-family="Noto Sans SC,sans-serif" font-size="13" fill="#6B7280">• 价格区间过滤 + 商品成色筛选</text><text x="690" y="250" font-family="Noto Sans SC,sans-serif" font-size="13" fill="#6B7280">• 排序方式: 价格 / 发布时间 / 浏览量</text><text x="690" y="275" font-family="Noto Sans SC,sans-serif" font-size="13" fill="#6B7280">• URL 参数同步，刷新保持筛选状态</text><text x="690" y="300" font-family="Noto Sans SC,sans-serif" font-size="13" fill="#6B7280">• Element Plus Pagination 分页组件</text><text x="690" y="325" font-family="Noto Sans SC,sans-serif" font-size="13" fill="#6B7280">• 空状态 El-Empty 友好提示</text><text x="690" y="355" font-family="Noto Sans SC,sans-serif" font-size="12" fill="#2D6A4F">📊 217 件商品 · 20 个分类 · 每页 20 条</text>
<rect x="60" y="400" width="1160" height="90" rx="10" fill="white" stroke="#E5E7EB"/><rect x="60" y="400" width="1160" height="40" rx="10" fill="#E8F5E9"/><rect x="60" y="420" width="1160" height="20" fill="#E8F5E9"/><text x="640" y="425" text-anchor="middle" font-family="Noto Sans SC,sans-serif" font-size="14" font-weight="700" fill="#2D6A4F">商品详情页</text><text x="100" y="463" font-family="Noto Sans SC,sans-serif" font-size="13" fill="#6B7280">📷 图片画廊 (主图+缩略图) | 🏷 成色标签 (全新/几乎全新/轻微痕迹/明显痕迹) | 💰 大号价格展示 (¥ + 原价删除线) | ⭐ 收藏功能 (Star/StarFilled 切换)</text><text x="100" y="483" font-family="Noto Sans SC,sans-serif" font-size="13" fill="#6B7280">👤 卖家信息卡片 (头像+昵称+信誉分) | 📞 联系卖家按钮 (一键跳转聊天) | 🛒 加入购物车 + 立即购买 | 🛡 HTML 安全净化防 XSS</text>
<rect x="0" y="717" width="1280" height="3" fill="#2D6A4F"/><text x="1230" y="705" text-anchor="end" font-family="Noto Sans SC,sans-serif" font-size="11" fill="#9CA3AF">2/13</text></svg>
