<svg xmlns="http://www.w3.org/2000/svg" viewBox="0 0 1280 720"><rect width="1280" height="720" fill="#FDFBF7"/><image href="../images/hzau-logo.png" x="1110" y="14" width="140" height="40" preserveAspectRatio="xMaxYMid meet" opacity="0.85"/><rect x="0" y="0" width="1280" height="4" fill="#52B788"/><text x="80" y="60" font-family="Noto Sans SC,sans-serif" font-size="34" font-weight="700" fill="#1F2937">前端开发</text><rect x="80" y="75" width="100" height="30" rx="6" fill="#52B788"/><text x="130" y="96" text-anchor="middle" font-size="14" font-weight="600" fill="white">李硕</text>
<rect x="60" y="125" width="560" height="280" rx="10" fill="white" stroke="#52B788" stroke-width="2"/><rect x="60" y="125" width="560" height="44" rx="10" fill="#52B788"/><rect x="60" y="149" width="560" height="20" fill="#52B788"/><text x="340" y="153" text-anchor="middle" font-size="17" font-weight="700" fill="white">商品与交易模块</text>
<text x="90" y="210" font-size="16" fill="#1F2937"><tspan font-weight="700">首页</tspan> Hero·公告轮播·分类Tab·商品网格·时间格式化</text>
<text x="90" y="242" font-size="16" fill="#1F2937"><tspan font-weight="700">商品模块</tspan> 列表筛选·详情画廊·发布多图·占位图回退</text>
<text x="90" y="274" font-size="16" fill="#1F2937"><tspan font-weight="700">购物车</tspan> 复选框·数量调节·全选·结算栏·防抖同步</text>
<text x="90" y="306" font-size="16" fill="#1F2937"><tspan font-weight="700">订单列表</tspan> 6状态Tab·买家卖家视角·订单卡片·statusType复用</text>
<text x="90" y="338" font-size="16" fill="#1F2937"><tspan font-weight="700">种子数据</tspan> 217商品·20分类·15用户·三版图片方案</text>
<rect x="660" y="125" width="560" height="280" rx="10" fill="white" stroke="#52B788" stroke-width="2"/><rect x="660" y="125" width="560" height="44" rx="10" fill="#52B788"/><rect x="660" y="149" width="560" height="20" fill="#52B788"/><text x="940" y="153" text-anchor="middle" font-size="17" font-weight="700" fill="white">管理后台与可视化</text>
<text x="690" y="210" font-size="16" fill="#1F2937"><tspan font-weight="700">AdminLayout</tspan> 侧边栏导航·路由鉴权·响应式折叠</text>
<text x="690" y="242" font-size="16" fill="#1F2937"><tspan font-weight="700">5大管理页</tspan> 用户·商品审核·订单·统计·公告</text>
<text x="690" y="274" font-size="16" fill="#1F2937"><tspan font-weight="700">ECharts</tspan> 分类占比饼图·每日趋势折线图</text>
<text x="690" y="306" font-size="16" fill="#1F2937"><tspan font-weight="700">自适应</tspan> window resize 同步缩放·dispose 防泄漏</text>
<text x="690" y="338" font-size="16" fill="#1F2937"><tspan font-weight="700">数据</tspan> 搜索·筛选·分页·状态流转全覆盖</text>
<rect x="0" y="717" width="1280" height="3" fill="#52B788"/><text x="1230" y="705" text-anchor="end" font-size="11" fill="#9CA3AF">8 / 16</text></svg>