<svg xmlns="http://www.w3.org/2000/svg" viewBox="0 0 1280 720"><rect width="1280" height="720" fill="#FDFBF7"/><image href="../images/hzau-logo.png" x="1120" y="14" width="130" height="37" preserveAspectRatio="xMaxYMid meet" opacity="0.85"/><rect x="0" y="0" width="1280" height="4" fill="#52B788"/><rect x="60" y="30" width="6" height="32" rx="3" fill="#52B788"/><text x="78" y="54" font-family="Noto Sans SC,sans-serif" font-size="28" font-weight="700" fill="#1F2937">李硕 — 管理后台与数据可视化</text><circle cx="100" cy="120" r="36" fill="#52B788"/><text x="100" y="128" text-anchor="middle" font-size="24" fill="white" font-weight="700">李</text><text x="155" y="120" font-family="Noto Sans SC,sans-serif" font-size="20" font-weight="700" fill="#1F2937">李硕</text>
<text x="80" y="200" font-family="Noto Sans SC,sans-serif" font-size="18" font-weight="700" fill="#52B788">管理后台全功能实现</text><rect x="80" y="215" width="1140" height="200" rx="8" fill="white" stroke="#E5E7EB"/>
<rect x="100" y="230" width="520" height="80" rx="6" fill="#E8F5E9"/><text x="360" y="255" text-anchor="middle" font-family="Noto Sans SC,sans-serif" font-size="14" font-weight="700" fill="#2D6A4F">AdminUsers</text><text x="360" y="275" text-anchor="middle" font-family="Noto Sans SC,sans-serif" font-size="12" fill="#6B7280">用户列表 · 启用/禁用 · 角色分配</text><text x="360" y="295" text-anchor="middle" font-family="Noto Sans SC,sans-serif" font-size="11" fill="#9CA3AF">分页 + 状态确认对话框</text>
<rect x="640" y="230" width="270" height="80" rx="6" fill="#E8F5E9"/><text x="775" y="255" text-anchor="middle" font-family="Noto Sans SC,sans-serif" font-size="14" font-weight="700" fill="#2D6A4F">AdminProducts</text><text x="775" y="275" text-anchor="middle" font-family="Noto Sans SC,sans-serif" font-size="12" fill="#6B7280">审核通过/驳回 · 违规下架</text><text x="775" y="295" text-anchor="middle" font-family="Noto Sans SC,sans-serif" font-size="11" fill="#9CA3AF">编辑弹窗 + 分页重置</text>
<rect x="925" y="230" width="270" height="80" rx="6" fill="#E8F5E9"/><text x="1060" y="255" text-anchor="middle" font-family="Noto Sans SC,sans-serif" font-size="14" font-weight="700" fill="#2D6A4F">AdminOrders</text><text x="1060" y="275" text-anchor="middle" font-family="Noto Sans SC,sans-serif" font-size="12" fill="#6B7280">状态流转 · 订单搜索</text><text x="1060" y="295" text-anchor="middle" font-family="Noto Sans SC,sans-serif" font-size="11" fill="#9CA3AF">详情弹窗 + 分页</text>
<rect x="100" y="320" width="350" height="80" rx="6" fill="#FFF3E0"/><text x="275" y="345" text-anchor="middle" font-family="Noto Sans SC,sans-serif" font-size="14" font-weight="700" fill="#E65100">AdminStats</text><text x="275" y="365" text-anchor="middle" font-family="Noto Sans SC,sans-serif" font-size="12" fill="#6B7280">ECharts 饼图 + 折线图</text><text x="275" y="385" text-anchor="middle" font-family="Noto Sans SC,sans-serif" font-size="11" fill="#9CA3AF">组件卸载 dispose 防泄漏</text>
<rect x="470" y="320" width="350" height="80" rx="6" fill="#FFF3E0"/><text x="645" y="345" text-anchor="middle" font-family="Noto Sans SC,sans-serif" font-size="14" font-weight="700" fill="#E65100">AdminAnnouncements</text><text x="645" y="365" text-anchor="middle" font-family="Noto Sans SC,sans-serif" font-size="12" fill="#6B7280">公告发布 · 编辑 · 删除</text><text x="645" y="385" text-anchor="middle" font-family="Noto Sans SC,sans-serif" font-size="11" fill="#9CA3AF">状态切换（已发布/草稿）</text>
<rect x="840" y="320" width="355" height="80" rx="6" fill="#FFF3E0"/><text x="1017" y="345" text-anchor="middle" font-family="Noto Sans SC,sans-serif" font-size="14" font-weight="700" fill="#E65100">AdminLayout</text><text x="1017" y="365" text-anchor="middle" font-family="Noto Sans SC,sans-serif" font-size="12" fill="#6B7280">侧边栏导航 · 路由鉴权</text><text x="1017" y="385" text-anchor="middle" font-family="Noto Sans SC,sans-serif" font-size="11" fill="#9CA3AF">响应式折叠侧边栏</text>

<text x="80" y="460" font-family="Noto Sans SC,sans-serif" font-size="18" font-weight="700" fill="#E76F51">数据可视化技术亮点</text>
<rect x="80" y="475" width="1140" height="60" rx="8" fill="#FFF8F0"/>
<text x="110" y="500" font-family="Noto Sans SC,sans-serif" font-size="14" fill="#1F2937"><tspan font-weight="700">ECharts 饼图</tspan>  分类占比环形图，展示各商品分类数量分布 | <tspan font-weight="700">ECharts 折线图</tspan>  每日用户注册量与订单量趋势 | <tspan font-weight="700">自适应</tspan>  窗口 resize 图表同步缩放 | <tspan font-weight="700">内存管理</tspan>  onUnmounted 中 chart.dispose() 释放资源</text>

<text x="80" y="570" font-family="Noto Sans SC,sans-serif" font-size="18" font-weight="700" fill="#52B788">代码贡献统计</text>
<rect x="80" y="585" width="340" height="45" rx="6" fill="#E8F5E9"/><text x="250" y="613" text-anchor="middle" font-family="Noto Sans SC,sans-serif" font-size="14" fill="#1F2937">20 个文件 · 约 5,230 行代码</text>
<rect x="440" y="585" width="340" height="45" rx="6" fill="#E8F5E9"/><text x="610" y="613" text-anchor="middle" font-family="Noto Sans SC,sans-serif" font-size="14" fill="#1F2937">6 个管理后台页面</text>
<rect x="800" y="585" width="340" height="45" rx="6" fill="#E8F5E9"/><text x="970" y="613" text-anchor="middle" font-family="Noto Sans SC,sans-serif" font-size="14" fill="#1F2937">217 件商品种子数据</text>

<rect x="0" y="717" width="1280" height="3" fill="#52B788"/><text x="1240" y="705" text-anchor="end" font-family="Noto Sans SC,sans-serif" font-size="11" fill="#9CA3AF">9 / 15</text></svg>