<svg xmlns="http://www.w3.org/2000/svg" viewBox="0 0 1280 720"><rect width="1280" height="720" fill="#FDFBF7"/><image href="../images/hzau-logo.png" x="1110" y="14" width="140" height="40" preserveAspectRatio="xMaxYMid meet" opacity="0.85"/><rect x="0" y="0" width="1280" height="4" fill="#2D6A4F"/><text x="80" y="56" font-family="Noto Sans SC,sans-serif" font-size="28" font-weight="700" fill="#1F2937">核心设计 · 数据库设计</text>
<text x="80" y="95" font-family="Noto Sans SC,sans-serif" font-size="18" font-weight="700" fill="#2D6A4F">13 张核心数据表</text>
<rect x="80" y="110" width="170" height="55" rx="6" fill="#E8F5E9"/><text x="165" y="142" text-anchor="middle" font-family="Noto Sans SC,sans-serif" font-size="13" font-weight="600" fill="#2D6A4F">user 用户表</text>
<rect x="265" y="110" width="170" height="55" rx="6" fill="#E8F5E9"/><text x="350" y="142" text-anchor="middle" font-family="Noto Sans SC,sans-serif" font-size="13" font-weight="600" fill="#2D6A4F">product 商品表</text>
<rect x="450" y="110" width="170" height="55" rx="6" fill="#E8F5E9"/><text x="535" y="142" text-anchor="middle" font-family="Noto Sans SC,sans-serif" font-size="13" font-weight="600" fill="#2D6A4F">category 分类表</text>
<rect x="635" y="110" width="170" height="55" rx="6" fill="#E8F5E9"/><text x="720" y="142" text-anchor="middle" font-family="Noto Sans SC,sans-serif" font-size="13" font-weight="600" fill="#2D6A4F">product_image</text>
<rect x="820" y="110" width="170" height="55" rx="6" fill="#FFF3E0"/><text x="905" y="142" text-anchor="middle" font-family="Noto Sans SC,sans-serif" font-size="13" font-weight="600" fill="#E65100">order 订单表</text>
<rect x="1005" y="110" width="170" height="55" rx="6" fill="#FFF3E0"/><text x="1090" y="142" text-anchor="middle" font-family="Noto Sans SC,sans-serif" font-size="13" font-weight="600" fill="#E65100">order_log</text>
<rect x="80" y="178" width="170" height="55" rx="6" fill="#FFF3E0"/><text x="165" y="210" text-anchor="middle" font-family="Noto Sans SC,sans-serif" font-size="13" font-weight="600" fill="#E65100">cart 购物车</text>
<rect x="265" y="178" width="170" height="55" rx="6" fill="#FFF3E0"/><text x="350" y="210" text-anchor="middle" font-family="Noto Sans SC,sans-serif" font-size="13" font-weight="600" fill="#E65100">address 地址</text>
<rect x="450" y="178" width="170" height="55" rx="6" fill="#E3F2FD"/><text x="535" y="210" text-anchor="middle" font-family="Noto Sans SC,sans-serif" font-size="13" font-weight="600" fill="#1565C0">message 消息</text>
<rect x="635" y="178" width="170" height="55" rx="6" fill="#E3F2FD"/><text x="720" y="210" text-anchor="middle" font-family="Noto Sans SC,sans-serif" font-size="13" font-weight="600" fill="#1565C0">notification</text>
<rect x="820" y="178" width="170" height="55" rx="6" fill="#FCE4EC"/><text x="905" y="210" text-anchor="middle" font-family="Noto Sans SC,sans-serif" font-size="13" font-weight="600" fill="#C62828">favorite 收藏</text>
<rect x="1005" y="178" width="170" height="55" rx="6" fill="#FCE4EC"/><text x="1090" y="210" text-anchor="middle" font-family="Noto Sans SC,sans-serif" font-size="13" font-weight="600" fill="#C62828">review 评价</text>
<rect x="80" y="246" width="170" height="55" rx="6" fill="#FCE4EC"/><text x="165" y="278" text-anchor="middle" font-family="Noto Sans SC,sans-serif" font-size="13" font-weight="600" fill="#C62828">announcement</text>
<text x="80" y="335" font-family="Noto Sans SC,sans-serif" font-size="18" font-weight="700" fill="#2D6A4F">关键设计决策</text>
<rect x="80" y="355" width="370" height="100" rx="8" fill="white" stroke="#E5E7EB"/><text x="265" y="385" text-anchor="middle" font-family="Noto Sans SC,sans-serif" font-size="14" font-weight="700" fill="#2D6A4F">utf8mb4 编码</text><text x="265" y="410" text-anchor="middle" font-family="Noto Sans SC,sans-serif" font-size="12" fill="#6B7280">完整支持中文、Emoji</text><text x="265" y="432" text-anchor="middle" font-family="Noto Sans SC,sans-serif" font-size="12" fill="#6B7280">JDBC URL + 表 + Nginx 三道防线</text>
<rect x="475" y="355" width="370" height="100" rx="8" fill="white" stroke="#E5E7EB"/><text x="660" y="385" text-anchor="middle" font-family="Noto Sans SC,sans-serif" font-size="14" font-weight="700" fill="#2D6A4F">FULLTEXT 全文索引</text><text x="660" y="410" text-anchor="middle" font-family="Noto Sans SC,sans-serif" font-size="12" fill="#6B7280">商品标题+描述全文搜索</text><text x="660" y="432" text-anchor="middle" font-family="Noto Sans SC,sans-serif" font-size="12" fill="#6B7280">CONCAT('%keyword%') + BOOLEAN 模式</text>
<rect x="870" y="355" width="370" height="100" rx="8" fill="white" stroke="#E5E7EB"/><text x="1055" y="385" text-anchor="middle" font-family="Noto Sans SC,sans-serif" font-size="14" font-weight="700" fill="#E76F51">软删除 + 逻辑外键</text><text x="1055" y="410" text-anchor="middle" font-family="Noto Sans SC,sans-serif" font-size="12" fill="#6B7280">@TableLogic deleted_at</text><text x="1055" y="432" text-anchor="middle" font-family="Noto Sans SC,sans-serif" font-size="12" fill="#6B7280">应用层保证引用完整性</text>
<text x="80" y="495" font-family="Noto Sans SC,sans-serif" font-size="18" font-weight="700" fill="#E76F51">订单状态机</text><rect x="80" y="515" width="1160" height="65" rx="8" fill="#FFF8F0"/><text x="640" y="545" text-anchor="middle" font-family="Noto Sans SC,sans-serif" font-size="15" fill="#1F2937">ENUM: 待付款 → 待发货 → 待收货 → 已完成 · 已取消 · order_log 记录每次状态变更 · 悲观锁防双重出售</text>
<rect x="0" y="717" width="1280" height="3" fill="#2D6A4F"/><text x="1230" y="705" text-anchor="end" font-family="Noto Sans SC,sans-serif" font-size="11" fill="#9CA3AF">7 / 22</text></svg>